<?xml version="1.0" encoding="utf-8"?>
<!-- Generator: Adobe Illustrator 23.0.1, SVG Export Plug-In . SVG Version: 6.00 Build 0)  -->
<!DOCTYPE svg PUBLIC "-//W3C//DTD SVG 1.1//EN" "http://www.w3.org/Graphics/SVG/1.1/DTD/svg11.dtd" [
	<!ENTITY ns_extend "http://ns.adobe.com/Extensibility/1.0/">
	<!ENTITY ns_ai "http://ns.adobe.com/AdobeIllustrator/10.0/">
	<!ENTITY ns_graphs "http://ns.adobe.com/Graphs/1.0/">
	<!ENTITY ns_vars "http://ns.adobe.com/Variables/1.0/">
	<!ENTITY ns_imrep "http://ns.adobe.com/ImageReplacement/1.0/">
	<!ENTITY ns_sfw "http://ns.adobe.com/SaveForWeb/1.0/">
	<!ENTITY ns_custom "http://ns.adobe.com/GenericCustomNamespace/1.0/">
	<!ENTITY ns_adobe_xpath "http://ns.adobe.com/XPath/1.0/">
]>
<svg version="1.1" id="Layer_1" xmlns:x="&ns_extend;" xmlns:i="&ns_ai;" xmlns:graph="&ns_graphs;"
	 xmlns="http://www.w3.org/2000/svg" xmlns:xlink="http://www.w3.org/1999/xlink" x="0px" y="0px" viewBox="0 0 109.6 38"
	 enable-background="new 0 0 109.6 38" xml:space="preserve">
<metadata>
	<sfw  xmlns="&ns_sfw;">
		<slices></slices>
		<sliceSourceBounds  bottomLeftOrigin="true" height="38" width="109.6" x="1" y="0.9"></sliceSourceBounds>
	</sfw>
</metadata>
<path fill-rule="evenodd" clip-rule="evenodd" d="M38.8,37.5h4.7V15.1h-4.7V37.5z M38.5,0v4.7h16.7v17.6h4.7V4.7h16.7V0H38.5z
	 M92.3,4.5l0.5,0.1c7.1,1.1,12.3,7.1,12.3,14.3c0,8-6.5,14.6-14.6,14.6c-6.7,0-12.6-4.8-14.1-11.5l-0.1-0.4h-4.5l0.1,0.6
	C73.5,31.3,81.3,38,90.5,38c10.5,0,19.1-8.6,19.1-19.1c0-9.5-7.2-17.6-16.6-18.8L92.4,0v4.5H92.3z M0,0.2v37.3h4.7V6.8l16.9,19.1
	l6.8-7.3v-7.1c0,0-6.2,6.6-6.8,7.3L5.1,0.2H0z"/>
</svg>
