<?xml version="1.0" encoding="UTF-8" standalone="no"?>
<!-- Created with Inkscape (http://www.inkscape.org/) -->

<svg
   width="33.675083mm"
   height="30.156307mm"
   viewBox="0 0 33.675083 30.156307"
   version="1.1"
   id="svg1"
   xml:space="preserve"
   xmlns="http://www.w3.org/2000/svg"
   xmlns:svg="http://www.w3.org/2000/svg"><defs
     id="defs1" /><g
     id="layer1"
     transform="translate(-20.241793,-21.378057)"><g
       id="g26"
       transform="matrix(0.18064818,0,0,0.18064818,16.489441,17.51615)"><g
         id="g27"><rect
           style="opacity:1;fill:#000000;stroke:none;stroke-width:3.49026;stroke-dasharray:none"
           id="rect26"
           width="186.41252"
           height="166.93391"
           x="20.771599"
           y="21.378057" /><path
           id="path3"
           style="fill:#ffffff"
           d="m 55.465865,52.24384 c 1.756328,-0.0023 4.149995,0.02665 7.393347,0.05839 12.684448,0.12416 13.702298,0.224734 16.727145,1.655713 2.913457,1.378288 5.449672,4.585553 6.375321,8.06204 0.689899,2.591137 0.650753,6.782686 -0.08527,9.136393 -1.138789,3.641697 -3.908419,7.371522 -7.385596,9.94668 -1.212319,0.897829 -2.204,1.716274 -2.204,1.818494 0,0.102219 0.331794,0.649967 0.737423,1.217496 3.159247,4.420246 5.827712,9.875852 7.42797,15.187187 1.008939,3.348737 2.16774,9.108457 2.23604,11.112507 l 0.04961,1.45521 -3.004984,0.0754 c -1.988948,0.0497 -3.129458,-0.0285 -3.373438,-0.23099 -0.25992,-0.21572 -0.368453,-0.9421 -0.368453,-2.46342 0,-5.75632 -1.513161,-12.478269 -3.855579,-17.129704 -1.115578,-2.215228 -1.618067,-2.966119 -3.400826,-5.079277 -1.494198,-1.771118 -1.027998,-1.72278 -5.996533,-0.627351 -1.686708,0.371869 -4.267818,0.822049 -5.735567,0.999938 -1.467759,0.17789 -2.783159,0.395275 -2.922819,0.483175 -0.15254,0.09601 -0.310558,4.913767 -0.396358,12.06593 l -0.143144,11.906259 -3.066996,0.0749 c -3.314647,0.0806 -3.558259,-0.022 -3.22461,-1.35134 0.08475,-0.33752 0.162616,-13.046759 0.173116,-28.243244 0.01396,-20.17156 -0.06336,-27.863162 -0.285253,-28.493351 -0.472507,-1.341951 -0.939534,-1.630329 4.329451,-1.637109 z m 4.971273,3.525366 c -1.292027,0.02429 -2.172455,0.08116 -2.288233,0.17725 -0.325119,0.26983 -0.382922,2.382514 -0.382922,13.999662 0,7.525003 0.0893,13.774295 0.198438,13.887525 0.311079,0.322739 3.71496,-0.05398 5.724198,-0.633553 1.001839,-0.28899 1.869131,-0.573087 1.927531,-0.631486 0.05837,-0.0584 -0.713489,-0.04741 -1.715658,0.02429 -1.645088,0.1177 -1.835313,0.08023 -1.957503,-0.387056 -0.16308,-0.623609 0.01562,-23.143916 0.185002,-23.313306 0.06529,-0.0653 3.486474,-0.09968 7.60212,-0.07648 l 7.482747,0.04237 0.569991,0.693498 c 0.726039,0.883399 0.990768,2.154373 0.557589,2.676322 -0.27775,0.33468 -1.035853,0.375349 -4.82968,0.260449 -2.475087,-0.0749 -4.648813,-0.0817 -4.830712,-0.0155 -0.25613,0.09321 -0.33073,2.234961 -0.33073,9.490894 0,8.459641 0.04164,9.370487 0.428398,9.370487 1.727338,0 7.463666,-5.401597 9.144145,-8.610844 1.509498,-2.882717 1.866421,-4.460239 1.751831,-7.741646 -0.08197,-2.347158 -0.210273,-3.055379 -0.751892,-4.152718 -1.565479,-3.171707 -2.616298,-4.083804 -5.280815,-4.584733 -1.747798,-0.328582 -9.327764,-0.5483 -13.203845,-0.475423 z m 25.682153,2.823083 c 0.605098,-0.08099 1.735125,0.251456 3.114539,0.941545 2.212228,1.106729 5.05249,3.799773 6.166548,5.846671 2.309848,4.243956 1.983369,10.982357 -0.771529,15.919442 -0.990459,1.775018 -4.151542,5.306069 -5.421891,6.056478 -1.207809,0.713479 -1.15278,1.155649 0.452169,3.617867 2.798317,4.292986 5.400289,10.306188 6.850228,15.832628 1.277018,4.86742 2.397686,12.26682 1.942517,12.82609 -0.18681,0.22953 -1.193234,0.33073 -3.288172,0.33073 -2.177427,0 -3.050542,-0.0922 -3.133142,-0.33073 -0.06298,-0.1819 -0.235142,-2.1216 -0.382922,-4.31033 -0.28805,-4.26637 -0.958731,-8.1523 -2.02985,-11.76311 -1.960958,-6.610466 -4.997293,-12.875064 -5.953642,-12.284004 -0.59659,0.368709 -1.566471,-0.191926 -2.08256,-1.203545 -0.83293,-1.632678 -0.71828,-1.932819 1.384928,-3.638537 5.867104,-4.758255 8.578631,-11.455118 7.224882,-17.842322 -0.460039,-2.170548 -0.974313,-3.219491 -2.248442,-4.5868 -0.974829,-1.046119 -2.55138,-4.693735 -2.24379,-5.191414 0.07479,-0.12101 0.21843,-0.193661 0.420129,-0.220659 z m 27.094469,1.636076 c 2.22596,-0.0249 4.46286,0.496569 6.63267,1.564762 4.22635,2.080618 6.81282,5.847416 7.52357,10.957471 0.35361,2.542368 0.0257,4.274964 -1.35754,7.167521 -1.75547,3.670937 -4.23261,5.83197 -8.2827,7.225399 -7.31117,2.515418 -15.81606,-1.967 -17.799426,-9.380823 -0.420629,-1.572198 -0.46632,-5.055326 -0.0925,-7.026444 0.676466,-3.567007 3.296736,-6.952038 6.808886,-8.795846 2.12627,-1.116249 4.34108,-1.687141 6.56704,-1.71204 z m 50.6336,0.818555 c 1.55176,0.07857 3.6872,0.419024 4.31602,0.748791 0.56476,0.29617 0.62393,1.755505 0.10025,2.471684 -0.35313,0.48293 -0.41767,0.479858 -2.42052,-0.114722 -3.27027,-0.970839 -5.89628,-0.452326 -7.01715,1.385962 -0.67372,1.104939 -0.64866,2.185842 0.0811,3.49281 0.52329,0.937149 1.01759,1.270419 4.31394,2.910417 4.61083,2.293978 5.11024,2.657562 6.07044,4.412651 1.04142,1.903568 1.10127,4.709798 0.14211,6.666776 -0.76987,1.570758 -2.36476,3.149444 -3.97392,3.933093 -2.09707,1.021239 -8.19919,0.847292 -9.3121,-0.265617 -0.39149,-0.391499 0.001,-2.443848 0.50488,-2.637048 0.22475,-0.08624 0.95704,0.04942 1.62729,0.30179 1.6284,0.61315 4.70619,0.841747 5.92419,0.439767 1.26639,-0.41794 2.47237,-1.829391 2.69648,-3.15588 0.37435,-2.215758 -0.94871,-3.585013 -6.15415,-6.37067 -3.17242,-1.697699 -4.36093,-2.767548 -4.93045,-4.439006 -0.92421,-2.712387 -0.29076,-5.52077 1.69189,-7.503418 1.28193,-1.281939 2.7743,-1.94791 5.06015,-2.25826 0.31019,-0.04211 0.76226,-0.04531 1.27951,-0.01912 z m -34.94102,0.491959 c 0.26039,-0.06834 0.69718,-0.05027 1.51102,0.0016 2.03585,0.12963 2.30628,0.394499 2.10737,2.067057 -0.0779,0.654839 -0.22058,5.360805 -0.31678,10.45776 -0.16668,8.830421 -0.15132,9.290475 0.32039,9.762194 0.45497,0.45497 0.80746,0.481776 4.35684,0.328146 2.81898,-0.12202 3.94659,-0.08263 4.17546,0.146244 0.40753,0.4076 0.40524,2.12742 -0.004,2.536279 h -5.1e-4 c -0.17463,0.17462 -0.85924,0.29185 -1.52136,0.26045 -0.66212,-0.0314 -3.4062,-0.120738 -6.09833,-0.198438 l -4.8948,-0.141593 0.078,-8.73125 c 0.0431,-4.802186 -0.0286,-10.219534 -0.15968,-12.038542 -0.13617,-1.892948 -0.13897,-3.574904 -0.007,-3.933093 0.10852,-0.293935 0.19229,-0.448425 0.45268,-0.516765 z m 15.166,0.219625 c 0.84355,-0.02068 1.7425,0.05252 2.03244,0.236162 0.30907,0.195749 0.3135,1.252159 0.0274,6.897253 -0.31827,6.279394 -0.24792,14.4656 0.1297,15.076599 0.10641,0.17218 1.68591,0.277603 4.18993,0.280603 2.21061,0.0022 4.17583,0.103453 4.36717,0.224793 0.22478,0.142559 0.31839,0.632469 0.26459,1.384928 l -0.0832,1.16427 -2.64584,0.01602 c -1.4552,0.0086 -4.31271,-0.05089 -6.35,-0.132292 l -3.70416,-0.148311 0.0341,-1.322917 c 0.32707,-12.709477 0.36815,-17.687006 0.16589,-20.108333 -0.13407,-1.600729 -0.19093,-3.059246 -0.12713,-3.241146 0.0675,-0.19241 0.85557,-0.306946 1.69912,-0.327629 z m -30.74386,1.191142 c -2.24758,-0.0024 -2.67259,0.07753 -4.01732,0.75861 -3.70503,1.876548 -5.50768,5.13515 -5.50768,9.955465 0,2.425817 0.72998,5.193811 1.84537,6.998539 1.0834,1.752978 3.16374,3.356401 5.53816,4.26899 0.61877,0.23782 1.73635,0.337204 3.19981,0.283704 2.71406,-0.09916 4.36934,-0.831788 6.2022,-2.744536 3.05772,-3.191007 3.68512,-9.376024 1.42627,-14.055989 -0.84947,-1.759979 -3.17751,-4.114778 -4.78162,-4.836398 -1.14679,-0.515889 -1.83418,-0.626385 -3.90519,-0.628385 z m 61.32856,8.836153 c 1.53865,0.02266 3.07888,0.175702 3.34295,0.439767 0.49087,0.490849 0.55156,1.988841 0.0987,2.441711 -0.39635,0.39633 -5.9563,0.422762 -6.62802,0.03152 -0.54378,-0.31672 -0.64343,-2.07372 -0.14573,-2.57142 0.25641,-0.256389 1.79345,-0.364237 3.3321,-0.341581 z M 67.363847,87.230334 c 0.363867,-0.0092 0.471122,0.111374 0.652156,0.353984 0.27221,0.36486 0.326405,0.925039 0.203606,2.105298 -0.21067,2.024898 0.07792,2.341824 1.899108,2.088245 0.70031,-0.09751 1.906765,-0.354949 2.680974,-0.572059 1.270348,-0.356209 1.453284,-0.353124 1.874304,0.02791 0.681879,0.617049 1.103113,2.150302 0.724504,2.636531 -0.4091,0.52538 -2.804897,1.193261 -5.017265,1.398881 -0.998229,0.09278 -1.861963,0.299604 -1.919263,0.459404 -0.05735,0.15979 -0.135966,5.648242 -0.174666,12.196672 l -0.07028,11.90625 -3.06958,0.0744 c -3.594447,0.0869 -3.889922,-0.0603 -3.431832,-1.70997 0.18151,-0.65366 0.281203,-6.01834 0.282153,-15.19908 0.0012,-11.454334 0.06895,-14.244889 0.351917,-14.479728 0.192789,-0.16 1.463254,-0.547323 2.823083,-0.860413 1.206804,-0.27785 1.827214,-0.417091 2.191081,-0.426331 z m 47.394003,4.462777 c 1.89393,0.07072 3.30321,0.448325 5.0276,1.272274 2.13325,1.019319 3.53137,2.254917 5.01727,4.434355 1.93235,2.83428 2.40619,4.40877 2.41019,8.01191 0.003,2.77069 -0.0641,3.19647 -0.75086,4.7625 -1.68195,3.83558 -4.38027,6.63276 -7.79022,8.076 -1.52726,0.64639 -2.17278,0.75968 -4.68189,0.81958 -3.481,0.083 -4.58354,-0.12014 -6.90759,-1.2733 -2.88597,-1.43197 -5.51331,-4.35338 -6.93446,-7.70909 -0.615054,-1.45236 -0.692113,-1.98414 -0.697113,-4.80798 -0.0044,-2.70553 0.08516,-3.39907 0.604093,-4.69222 2.16444,-5.393526 6.6743,-8.563184 12.61784,-8.867674 0.76859,-0.03937 1.45383,-0.04993 2.08514,-0.02635 z m 41.99021,0.489376 c 3.07709,0 5.66014,0.594172 6.93084,1.593701 0.61608,0.48461 0.65488,0.61863 0.39894,1.389579 -0.54405,1.638819 -0.80175,1.714975 -2.65617,0.788066 -4.7375,-2.367988 -8.58299,-2.016116 -11.80031,1.079521 -2.22801,2.143748 -3.21073,4.666326 -3.21273,8.246006 -0.003,4.69885 2.19652,8.5252 6.06888,10.56008 1.60031,0.84094 2.11565,0.98069 3.67006,0.99529 1.97826,0.0186 4.27259,-0.54277 5.72885,-1.40198 1.47079,-0.86782 2.04881,-0.28512 1.55288,1.56631 -0.20874,0.77926 -1.76916,1.57547 -4.02508,2.05362 -7.93101,1.68102 -15.2228,-2.99472 -16.81861,-10.78539 -0.51089,-2.49403 -0.51235,-3.02178 -0.0186,-5.36918 0.55386,-2.63315 1.83408,-5.01045 3.70468,-6.878648 2.73737,-2.733867 5.74946,-3.836975 10.47637,-3.836975 z m -29.76511,0.600997 c 0.90159,0.03896 1.79185,0.187822 2.0221,0.418062 0.15518,0.15518 1.56161,2.638469 3.12487,5.518526 1.56327,2.880048 3.01979,5.272368 3.23701,5.316468 0.37356,0.0758 1.64058,-2.02411 4.89273,-8.108028 1.53349,-2.868768 1.6764,-2.993665 3.30419,-2.899565 1.04742,0.06057 1.39786,0.18781 1.46296,0.5302 0.0471,0.24768 -0.71146,1.735963 -1.68569,3.307292 -0.97423,1.571328 -2.25128,3.630581 -2.83755,4.576461 -0.58627,0.94589 -1.67199,2.66556 -2.41277,3.82148 l -1.34669,2.10168 0.0925,5.21725 c 0.0888,5.02316 0.0719,5.22793 -0.44597,5.50509 -0.77603,0.41536 -3.09118,0.36344 -3.45715,-0.0775 -0.21832,-0.26302 -0.25338,-1.69748 -0.12506,-5.11545 l 0.17828,-4.75009 -2.91713,-5.13716 c -1.60449,-2.82539 -3.53231,-6.14698 -4.28398,-7.381459 -1.27982,-2.101878 -1.3363,-2.267352 -0.89245,-2.602942 0.2756,-0.208379 1.18821,-0.279258 2.0898,-0.240295 z m 38.86532,0.361735 c 0.14554,-0.05594 2.27,-0.0068 4.72065,0.109037 2.45063,0.11585 5.03384,0.16257 5.74073,0.10387 1.49447,-0.12419 2.10633,0.299 2.10633,1.456758 0,1.319749 -0.40228,1.422966 -4.72736,1.214397 l -3.92999,-0.189136 -0.16536,0.618567 c -0.0911,0.340309 -0.1675,2.013368 -0.1695,3.718118 -0.004,3.84799 -0.0835,3.77761 3.93154,3.52278 3.41364,-0.21665 3.99503,0.0237 3.57808,1.4795 l -0.25632,0.894 -3.6282,0.0739 -3.62872,0.0734 v 4.45813 c 0,3.36959 0.0854,4.52896 0.34933,4.74803 0.21049,0.17469 1.97103,0.31856 4.43177,0.36276 l 4.08244,0.0734 0.0832,1.01079 c 0.0458,0.55586 -0.0583,1.18093 -0.23099,1.38906 -0.20398,0.24579 -0.74316,0.35931 -1.53841,0.32401 -0.6734,-0.0299 -3.40183,-0.11924 -6.0632,-0.19844 -3.8931,-0.11587 -4.88998,-0.22174 -5.10201,-0.54105 -0.15565,-0.23437 -0.20044,-1.31775 -0.10904,-2.64583 0.0851,-1.23693 0.17874,-6.68266 0.20774,-12.10159 0.0336,-6.275847 0.14873,-9.889631 0.31729,-9.954431 z m -52.78437,0.786515 c -2.36585,0.03463 -3.83972,0.536011 -5.69578,1.93735 -2.57861,1.946868 -3.83212,4.853136 -3.82612,8.870776 0.007,5.04245 2.34298,9.30998 6.13089,11.20293 1.43675,0.718 1.95777,0.83578 3.71192,0.84078 2.89309,0.008 4.66464,-0.70468 6.62285,-2.66289 2.77375,-2.77377 3.67918,-6.49984 2.70475,-11.13213 -0.8465,-4.024113 -2.92119,-6.873183 -6.07664,-8.345231 -1.32532,-0.61825 -1.91521,-0.735785 -3.57187,-0.711585 z M 52.252625,121.82977 c 0.328088,-0.0206 0.687628,0.039 0.919323,0.18862 0.16553,0.10691 1.09863,1.97624 2.073259,4.15375 1.805728,4.03439 6.910053,14.39187 7.860502,15.95045 0.2884,0.47294 0.632915,0.8599 0.765845,0.8599 0.497429,0 7.458941,-14.51503 8.74882,-18.24178 0.769039,-2.22197 1.169726,-2.70576 2.161625,-2.60966 l 0.843359,0.0816 0.181384,1.98437 c 0.09989,1.09141 0.315234,3.71079 0.478524,5.82083 0.51085,6.60144 1.198091,11.97018 2.031401,15.875 0.873759,4.0944 0.936436,3.95862 -1.838131,3.96462 -2.220708,0.005 -2.17044,0.10662 -2.413289,-4.89066 -0.25707,-5.28992 -0.859464,-12.46608 -1.075904,-12.81627 -0.386039,-0.62464 -1.034082,0.55972 -5.578987,10.19473 -0.48673,1.03184 -1.256924,2.81777 -1.711524,3.96875 -0.454609,1.15098 -0.988944,2.34456 -1.187524,2.65255 -0.37723,0.5851 -1.043642,0.85535 -1.718242,0.69711 -0.218709,-0.0513 -2.28962,-3.89996 -4.612638,-8.57312 -3.690906,-7.42488 -4.649033,-9.0762 -5.023983,-8.65787 -0.12513,0.13961 -0.898456,9.2634 -1.107426,13.06329 -0.09603,1.74625 -0.282281,3.38336 -0.413411,3.63802 -0.30986,0.60174 -2.802482,0.67067 -3.027722,0.0837 -0.08006,-0.20862 0.214454,-2.7387 0.654223,-5.6224 0.937429,-6.147 1.556988,-11.92502 1.856218,-17.30592 0.11808,-2.12351 0.3,-3.99874 0.40411,-4.16719 0.105599,-0.17086 0.402099,-0.27185 0.730188,-0.29249 z m 40.306066,1.4857 c 2.659548,-0.003 3.923785,0.2866 6.464722,1.47898 3.381407,1.58678 6.368747,5.50689 7.181987,9.42423 0.44458,2.14153 0.1792,6.16399 -0.52865,8.01657 -1.3063,3.41883 -4.74653,6.62132 -8.48785,7.90132 -1.941158,0.66412 -5.957522,0.92263 -7.9375,0.51057 -3.283287,-0.68329 -7.53478,-3.97898 -8.988599,-6.96754 -2.840537,-5.83921 -1.818617,-12.48716 2.547648,-16.5716 2.844277,-2.66067 5.743276,-3.78853 9.748242,-3.79253 z m 40.161369,0.12661 c 3.77105,0.1048 6.44026,1.19014 8.93021,3.56515 2.81586,2.68588 4.08546,5.42865 4.39456,9.49297 0.29572,3.88832 -1.09755,7.45338 -4.05608,10.37972 -1.74589,1.7269 -3.73768,2.89683 -6.1526,3.61374 -1.91167,0.56748 -5.50516,0.52774 -7.55871,-0.0837 -2.33171,-0.69428 -2.74815,-0.89811 -4.53512,-2.2164 -2.50096,-1.84502 -4.64354,-5.25177 -5.27462,-8.38605 -0.25916,-1.28716 -0.17253,-4.49912 0.16227,-6.01256 0.82144,-3.71322 3.93535,-7.5361 7.52925,-9.24284 1.88809,-0.89666 2.30375,-0.98964 4.87413,-1.09554 0.58638,-0.0242 1.14799,-0.0294 1.68671,-0.0145 z m 41.06571,0.6227 c 4.34285,0 5.68613,0.67783 4.8426,2.44326 -0.45639,0.95518 -1.16354,1.02805 -3.10575,0.31988 -3.73861,-1.36316 -7.15425,0.23497 -7.15925,3.34966 -0.003,1.94881 0.73826,2.65892 4.96145,4.75682 2.07469,1.03062 4.05772,2.14254 4.40697,2.47065 1.03847,0.97559 2.29858,3.61011 2.44998,5.12268 0.2959,2.95626 -1.97595,6.26536 -5.09375,7.41919 -2.62305,0.97073 -8.13399,0.73352 -8.88266,-0.38241 -0.2861,-0.42644 -0.0966,-2.05313 0.28319,-2.43292 0.17344,-0.17345 0.86596,-0.0642 2.0438,0.32246 3.92954,1.28998 6.29177,0.9632 7.76852,-1.07539 1.21776,-1.68107 1.02501,-4.00337 -0.4377,-5.2803 -0.26956,-0.23532 -2.09724,-1.2831 -4.06177,-2.32854 -3.73726,-1.9888 -4.68832,-2.79806 -5.62343,-4.78317 -0.78622,-1.66906 -0.79349,-4.49772 -0.0155,-5.95312 0.7103,-1.32877 1.98502,-2.53957 3.52226,-3.34502 1.04097,-0.54543 1.55645,-0.62373 4.10104,-0.62373 z m -70.24067,0.14883 8.54573,0.0775 c 4.70011,0.0426 8.68725,0.16478 8.86044,0.27182 0.40801,0.2524 0.40669,1.5534 -0.003,1.96267 -0.20913,0.20913 -1.32879,0.31729 -3.27939,0.31729 -2.417,0 -2.99006,0.0745 -3.11712,0.40566 -0.34803,0.90696 -0.49061,14.37019 -0.19172,18.09451 0.21036,2.6213 0.22056,3.90116 0.0331,4.08864 -0.44625,0.44534 -3.55077,0.54658 -3.88658,0.1266 -0.20431,-0.25549 -0.21099,-2.70736 -0.0227,-8.5602 0.15696,-4.88013 0.17053,-9.38084 0.0331,-11.1125 l -0.231,-2.91041 -2.11667,0.0832 c -3.20543,0.12541 -4.33732,-0.10574 -4.65863,-0.95084 -0.1462,-0.38447 -0.19825,-0.96791 -0.11575,-1.29656 z m 48.257,0.30799 c 5.13251,-0.0784 6.63432,0.16082 8.37417,1.33273 2.21732,1.49353 2.90813,4.98762 1.47071,7.44038 -0.80684,1.37676 -2.3374,2.6156 -3.82302,3.09438 -1.75614,0.56597 -1.94182,0.72455 -1.59835,1.36633 0.30478,0.56948 3.32646,4.47897 7.0559,9.12915 1.21916,1.52015 1.9044,2.59742 1.80971,2.84428 -0.11771,0.30675 -0.62647,0.39739 -2.23139,0.39739 -2.49778,0 -1.976,0.464 -6.62751,-5.8906 -4.91419,-6.71347 -5.10554,-6.91478 -5.42189,-5.70508 -0.0827,0.31625 0.0486,2.94236 0.29146,5.83582 0.38748,4.61576 0.39385,5.2907 0.0532,5.50613 -0.46039,0.29123 -3.18226,0.33025 -3.56515,0.0512 -0.16865,-0.12293 -0.30569,-4.18224 -0.37259,-11.04222 -0.0582,-5.96636 -0.11682,-11.62183 -0.13022,-12.56771 l -0.0243,-1.71979 z m -59.082695,1.0635 c -4.178043,-0.22083 -8.205513,2.39436 -9.429915,6.98614 -0.879559,3.29857 -0.304496,8.26697 1.266072,10.94041 1.254909,2.13614 3.759685,4.23851 5.886463,4.94027 1.492218,0.49237 4.281494,0.2344 6.082833,-0.56224 2.599177,-1.14948 4.713502,-3.83659 5.580022,-7.09156 1.19355,-4.48339 -0.57191,-10.48854 -3.843694,-13.07362 -1.712145,-1.35278 -3.64267,-2.03903 -5.541781,-2.1394 z m 39.129915,0.0796 c -1.94362,-0.0106 -2.45436,0.0888 -3.76153,0.73071 -5.45577,2.67912 -7.34308,10.04201 -4.23385,16.5163 1.41711,2.95084 3.94653,5.01332 6.93704,5.6565 1.28322,0.27599 3.22137,0.0448 4.90461,-0.58497 2.06681,-0.77329 3.8903,-2.53627 5.04931,-4.88136 0.8495,-1.71885 0.98279,-2.25751 1.09709,-4.44262 0.30212,-5.77593 -2.01829,-10.31627 -6.28851,-12.30468 -1.19135,-0.55475 -1.86299,-0.67978 -3.70416,-0.68988 z m 21.34495,0.57878 c -0.99327,0.0122 -1.88628,0.10228 -1.98438,0.19998 -0.21719,0.21632 -0.40555,8.50151 -0.20515,9.02374 0.0923,0.24043 0.54219,0.36936 1.27537,0.36536 3.76297,-0.0215 6.02754,-1.81343 6.02754,-4.76974 0,-3.19684 -1.76498,-4.86044 -5.11338,-4.81934 z" /><path
           style="fill:#000000"
           d="m 113.61115,32.578373 c 56.69444,0.04122 81.37579,0.143879 81.7423,0.340031 0.52177,0.279241 0.52493,0.718951 0.49403,70.452026 -0.0126,28.4684 -0.0685,49.12138 -0.13178,61.02057 h -2.52698 c 0.15882,-28.35223 0.26945,-127.590546 0.10129,-128.470195 -0.0605,-0.316554 -0.36605,-0.647129 -0.67903,-0.734839 -1.06606,-0.298762 -157.435667,-0.480553 -157.863747,-0.183968 -0.584809,0.405777 -0.823322,29.771185 -0.734322,90.438412 0.0288,19.62004 0.06388,31.48518 0.12299,38.95059 h -2.184363 c -0.113111,0 -0.211819,0.0424 -0.318327,0.0641 -0.04118,-12.03787 -0.06093,-31.91099 -0.02377,-59.82064 0.07741,-58.203245 0.159137,-71.491054 0.439767,-71.77133 0.281339,-0.281014 15.214436,-0.332967 81.561942,-0.284737 z"
           id="path2" /><rect
           style="opacity:1;fill:none;stroke:#f9f9f9;stroke-width:3;stroke-dasharray:none"
           id="rect1"
           width="162.19925"
           height="141.7417"
           x="32.878231"
           y="33.974171" /></g></g></g></svg>
